<?xml version="1.0" encoding="iso-8859-1"?>
<!-- Generator: Adobe Illustrator 16.0.0, SVG Export Plug-In . SVG Version: 6.00 Build 0)  -->
<!DOCTYPE svg PUBLIC "-//W3C//DTD SVG 1.1//EN" "http://www.w3.org/Graphics/SVG/1.1/DTD/svg11.dtd">
<svg version="1.1" id="Capa_1" xmlns="http://www.w3.org/2000/svg" xmlns:xlink="http://www.w3.org/1999/xlink" x="0px" y="0px"
	 width="568.787px" height="568.787px" viewBox="0 0 568.787 568.787" style="enable-background:new 0 0 568.787 568.787;"
	 xml:space="preserve">
<g>
	<g>
		<path d="M18.751,346.82h177.37v16.451h-44.835c-5.073,0-9.18,4.105-9.18,9.18s4.107,9.18,9.18,9.18h266.22
			c5.074,0,9.18-4.105,9.18-9.18s-4.105-9.18-9.18-9.18h-44.834V346.82h76.561c-0.104,5.146-0.209,10.301-0.312,15.447
			c-0.098,5.055,3.77,10.863,8.984,11.805c13.348,2.406,30.428,20.863,38.525,30.693c-16.529,5.262-28.6,52.234-28.6,71.646
			c0,23.66,17.914,36.719,40.008,36.719s40.006-13.059,40.006-36.719c0-15.863-5.771-60.049-30.043-67.865
			c-11.047-20.752-28.635-50.881-44.223-55.783c0.043-1.982,0.08-3.961,0.121-5.943h76.336c10.355,0,18.752-8.396,18.752-18.752
			V49.927c0-10.355-8.396-18.751-18.752-18.751H18.751C8.396,31.176,0,39.572,0,49.927v278.141
			C0,338.424,8.396,346.82,18.751,346.82z M27.056,73.336c0-8.611,7.595-15.594,16.965-15.594h480.745
			c9.369,0,16.965,6.983,16.965,15.594v231.33c0,8.611-7.596,15.594-16.965,15.594H44.021c-9.37,0-16.965-6.982-16.965-15.594
			V73.336z"/>
		<path d="M441.631,519.252l-18.359-89.762c0-10.141-8.219-18.361-18.359-18.361H60.147c-10.141,0-18.36,8.221-18.36,18.361
			l-12.24,89.762c0,10.141,8.219,18.359,18.36,18.359h375.358C433.406,537.611,441.631,529.393,441.631,519.252z"/>
	</g>
</g>
<g>
</g>
<g>
</g>
<g>
</g>
<g>
</g>
<g>
</g>
<g>
</g>
<g>
</g>
<g>
</g>
<g>
</g>
<g>
</g>
<g>
</g>
<g>
</g>
<g>
</g>
<g>
</g>
<g>
</g>
</svg>
